<mxfile host="app.diagrams.net" agent="Mozilla/5.0 (Macintosh; Intel Mac OS X 10_15_7) AppleWebKit/537.36 (KHTML, like Gecko) Chrome/130.0.0.0 Safari/537.36" version="24.9.1">
  <diagram name="第 1 页" id="JmAHMn3rujhHnV1lBThX">
    <mxGraphModel dx="1158" dy="1114" grid="1" gridSize="10" guides="1" tooltips="1" connect="1" arrows="1" fold="1" page="1" pageScale="1" pageWidth="827" pageHeight="1169" math="0" shadow="0">
      <root>
        <mxCell id="0" />
        <mxCell id="1" parent="0" />
        <mxCell id="PA8RiOm6JGbZ_3bK-6OF-1" value="" style="shape=table;startSize=0;container=1;collapsible=0;childLayout=tableLayout;fontSize=16;sketch=1;hachureGap=4;jiggle=2;curveFitting=1;fontFamily=Architects Daughter;fontSource=https%3A%2F%2Ffonts.googleapis.com%2Fcss%3Ffamily%3DArchitects%2BDaughter;strokeWidth=2;" vertex="1" parent="1">
          <mxGeometry x="360" y="400" width="80" height="400" as="geometry" />
        </mxCell>
        <mxCell id="PA8RiOm6JGbZ_3bK-6OF-31" style="shape=tableRow;horizontal=0;startSize=0;swimlaneHead=0;swimlaneBody=0;strokeColor=#b85450;top=0;left=0;bottom=0;right=0;collapsible=0;dropTarget=0;fillColor=#f8cecc;points=[[0,0.5],[1,0.5]];portConstraint=eastwest;fontSize=16;sketch=1;hachureGap=4;jiggle=2;curveFitting=1;fontFamily=Architects Daughter;fontSource=https%3A%2F%2Ffonts.googleapis.com%2Fcss%3Ffamily%3DArchitects%2BDaughter;opacity=0;" vertex="1" parent="PA8RiOm6JGbZ_3bK-6OF-1">
          <mxGeometry width="80" height="40" as="geometry" />
        </mxCell>
        <mxCell id="PA8RiOm6JGbZ_3bK-6OF-32" value="&lt;b&gt;0&lt;/b&gt;" style="shape=partialRectangle;html=1;whiteSpace=wrap;connectable=0;strokeColor=#b85450;overflow=hidden;fillColor=#f8cecc;top=0;left=0;bottom=0;right=0;pointerEvents=1;fontSize=16;sketch=1;hachureGap=4;jiggle=2;curveFitting=1;fontFamily=Architects Daughter;fontSource=https%3A%2F%2Ffonts.googleapis.com%2Fcss%3Ffamily%3DArchitects%2BDaughter;shadow=0;" vertex="1" parent="PA8RiOm6JGbZ_3bK-6OF-31">
          <mxGeometry width="80" height="40" as="geometry">
            <mxRectangle width="80" height="40" as="alternateBounds" />
          </mxGeometry>
        </mxCell>
        <mxCell id="PA8RiOm6JGbZ_3bK-6OF-29" style="shape=tableRow;horizontal=0;startSize=0;swimlaneHead=0;swimlaneBody=0;strokeColor=inherit;top=0;left=0;bottom=0;right=0;collapsible=0;dropTarget=0;fillColor=none;points=[[0,0.5],[1,0.5]];portConstraint=eastwest;fontSize=16;sketch=1;hachureGap=4;jiggle=2;curveFitting=1;fontFamily=Architects Daughter;fontSource=https%3A%2F%2Ffonts.googleapis.com%2Fcss%3Ffamily%3DArchitects%2BDaughter;" vertex="1" parent="PA8RiOm6JGbZ_3bK-6OF-1">
          <mxGeometry y="40" width="80" height="40" as="geometry" />
        </mxCell>
        <mxCell id="PA8RiOm6JGbZ_3bK-6OF-30" value="&lt;b&gt;1&lt;/b&gt;" style="shape=partialRectangle;html=1;whiteSpace=wrap;connectable=0;strokeColor=#b85450;overflow=hidden;fillColor=#f8cecc;top=0;left=0;bottom=0;right=0;pointerEvents=1;fontSize=16;sketch=1;hachureGap=4;jiggle=2;curveFitting=1;fontFamily=Architects Daughter;fontSource=https%3A%2F%2Ffonts.googleapis.com%2Fcss%3Ffamily%3DArchitects%2BDaughter;" vertex="1" parent="PA8RiOm6JGbZ_3bK-6OF-29">
          <mxGeometry width="80" height="40" as="geometry">
            <mxRectangle width="80" height="40" as="alternateBounds" />
          </mxGeometry>
        </mxCell>
        <mxCell id="PA8RiOm6JGbZ_3bK-6OF-27" style="shape=tableRow;horizontal=0;startSize=0;swimlaneHead=0;swimlaneBody=0;strokeColor=inherit;top=0;left=0;bottom=0;right=0;collapsible=0;dropTarget=0;fillColor=none;points=[[0,0.5],[1,0.5]];portConstraint=eastwest;fontSize=16;sketch=1;hachureGap=4;jiggle=2;curveFitting=1;fontFamily=Architects Daughter;fontSource=https%3A%2F%2Ffonts.googleapis.com%2Fcss%3Ffamily%3DArchitects%2BDaughter;" vertex="1" parent="PA8RiOm6JGbZ_3bK-6OF-1">
          <mxGeometry y="80" width="80" height="40" as="geometry" />
        </mxCell>
        <mxCell id="PA8RiOm6JGbZ_3bK-6OF-28" value="&lt;b&gt;2&lt;/b&gt;" style="shape=partialRectangle;html=1;whiteSpace=wrap;connectable=0;strokeColor=#6c8ebf;overflow=hidden;fillColor=#dae8fc;top=0;left=0;bottom=0;right=0;pointerEvents=1;fontSize=16;sketch=1;hachureGap=4;jiggle=2;curveFitting=1;fontFamily=Architects Daughter;fontSource=https%3A%2F%2Ffonts.googleapis.com%2Fcss%3Ffamily%3DArchitects%2BDaughter;" vertex="1" parent="PA8RiOm6JGbZ_3bK-6OF-27">
          <mxGeometry width="80" height="40" as="geometry">
            <mxRectangle width="80" height="40" as="alternateBounds" />
          </mxGeometry>
        </mxCell>
        <mxCell id="PA8RiOm6JGbZ_3bK-6OF-25" style="shape=tableRow;horizontal=0;startSize=0;swimlaneHead=0;swimlaneBody=0;strokeColor=inherit;top=0;left=0;bottom=0;right=0;collapsible=0;dropTarget=0;fillColor=none;points=[[0,0.5],[1,0.5]];portConstraint=eastwest;fontSize=16;sketch=1;hachureGap=4;jiggle=2;curveFitting=1;fontFamily=Architects Daughter;fontSource=https%3A%2F%2Ffonts.googleapis.com%2Fcss%3Ffamily%3DArchitects%2BDaughter;" vertex="1" parent="PA8RiOm6JGbZ_3bK-6OF-1">
          <mxGeometry y="120" width="80" height="40" as="geometry" />
        </mxCell>
        <mxCell id="PA8RiOm6JGbZ_3bK-6OF-26" value="&lt;b&gt;3&lt;/b&gt;" style="shape=partialRectangle;html=1;whiteSpace=wrap;connectable=0;strokeColor=#6c8ebf;overflow=hidden;fillColor=#dae8fc;top=0;left=0;bottom=0;right=0;pointerEvents=1;fontSize=16;sketch=1;hachureGap=4;jiggle=2;curveFitting=1;fontFamily=Architects Daughter;fontSource=https%3A%2F%2Ffonts.googleapis.com%2Fcss%3Ffamily%3DArchitects%2BDaughter;" vertex="1" parent="PA8RiOm6JGbZ_3bK-6OF-25">
          <mxGeometry width="80" height="40" as="geometry">
            <mxRectangle width="80" height="40" as="alternateBounds" />
          </mxGeometry>
        </mxCell>
        <mxCell id="PA8RiOm6JGbZ_3bK-6OF-23" style="shape=tableRow;horizontal=0;startSize=0;swimlaneHead=0;swimlaneBody=0;strokeColor=inherit;top=0;left=0;bottom=0;right=0;collapsible=0;dropTarget=0;fillColor=none;points=[[0,0.5],[1,0.5]];portConstraint=eastwest;fontSize=16;sketch=1;hachureGap=4;jiggle=2;curveFitting=1;fontFamily=Architects Daughter;fontSource=https%3A%2F%2Ffonts.googleapis.com%2Fcss%3Ffamily%3DArchitects%2BDaughter;" vertex="1" parent="PA8RiOm6JGbZ_3bK-6OF-1">
          <mxGeometry y="160" width="80" height="40" as="geometry" />
        </mxCell>
        <mxCell id="PA8RiOm6JGbZ_3bK-6OF-24" value="&lt;b&gt;4&lt;/b&gt;" style="shape=partialRectangle;html=1;whiteSpace=wrap;connectable=0;strokeColor=#6c8ebf;overflow=hidden;fillColor=#dae8fc;top=0;left=0;bottom=0;right=0;pointerEvents=1;fontSize=16;sketch=1;hachureGap=4;jiggle=2;curveFitting=1;fontFamily=Architects Daughter;fontSource=https%3A%2F%2Ffonts.googleapis.com%2Fcss%3Ffamily%3DArchitects%2BDaughter;" vertex="1" parent="PA8RiOm6JGbZ_3bK-6OF-23">
          <mxGeometry width="80" height="40" as="geometry">
            <mxRectangle width="80" height="40" as="alternateBounds" />
          </mxGeometry>
        </mxCell>
        <mxCell id="PA8RiOm6JGbZ_3bK-6OF-21" style="shape=tableRow;horizontal=0;startSize=0;swimlaneHead=0;swimlaneBody=0;strokeColor=inherit;top=0;left=0;bottom=0;right=0;collapsible=0;dropTarget=0;fillColor=none;points=[[0,0.5],[1,0.5]];portConstraint=eastwest;fontSize=16;sketch=1;hachureGap=4;jiggle=2;curveFitting=1;fontFamily=Architects Daughter;fontSource=https%3A%2F%2Ffonts.googleapis.com%2Fcss%3Ffamily%3DArchitects%2BDaughter;" vertex="1" parent="PA8RiOm6JGbZ_3bK-6OF-1">
          <mxGeometry y="200" width="80" height="40" as="geometry" />
        </mxCell>
        <mxCell id="PA8RiOm6JGbZ_3bK-6OF-22" value="&lt;b&gt;5&lt;/b&gt;" style="shape=partialRectangle;html=1;whiteSpace=wrap;connectable=0;strokeColor=#6c8ebf;overflow=hidden;fillColor=#dae8fc;top=0;left=0;bottom=0;right=0;pointerEvents=1;fontSize=16;sketch=1;hachureGap=4;jiggle=2;curveFitting=1;fontFamily=Architects Daughter;fontSource=https%3A%2F%2Ffonts.googleapis.com%2Fcss%3Ffamily%3DArchitects%2BDaughter;" vertex="1" parent="PA8RiOm6JGbZ_3bK-6OF-21">
          <mxGeometry width="80" height="40" as="geometry">
            <mxRectangle width="80" height="40" as="alternateBounds" />
          </mxGeometry>
        </mxCell>
        <mxCell id="PA8RiOm6JGbZ_3bK-6OF-19" style="shape=tableRow;horizontal=0;startSize=0;swimlaneHead=0;swimlaneBody=0;strokeColor=inherit;top=0;left=0;bottom=0;right=0;collapsible=0;dropTarget=0;fillColor=none;points=[[0,0.5],[1,0.5]];portConstraint=eastwest;fontSize=16;sketch=1;hachureGap=4;jiggle=2;curveFitting=1;fontFamily=Architects Daughter;fontSource=https%3A%2F%2Ffonts.googleapis.com%2Fcss%3Ffamily%3DArchitects%2BDaughter;" vertex="1" parent="PA8RiOm6JGbZ_3bK-6OF-1">
          <mxGeometry y="240" width="80" height="40" as="geometry" />
        </mxCell>
        <mxCell id="PA8RiOm6JGbZ_3bK-6OF-20" value="&lt;b&gt;6&lt;/b&gt;" style="shape=partialRectangle;html=1;whiteSpace=wrap;connectable=0;strokeColor=#6c8ebf;overflow=hidden;fillColor=#dae8fc;top=0;left=0;bottom=0;right=0;pointerEvents=1;fontSize=16;sketch=1;hachureGap=4;jiggle=2;curveFitting=1;fontFamily=Architects Daughter;fontSource=https%3A%2F%2Ffonts.googleapis.com%2Fcss%3Ffamily%3DArchitects%2BDaughter;" vertex="1" parent="PA8RiOm6JGbZ_3bK-6OF-19">
          <mxGeometry width="80" height="40" as="geometry">
            <mxRectangle width="80" height="40" as="alternateBounds" />
          </mxGeometry>
        </mxCell>
        <mxCell id="PA8RiOm6JGbZ_3bK-6OF-17" style="shape=tableRow;horizontal=0;startSize=0;swimlaneHead=0;swimlaneBody=0;strokeColor=inherit;top=0;left=0;bottom=0;right=0;collapsible=0;dropTarget=0;fillColor=none;points=[[0,0.5],[1,0.5]];portConstraint=eastwest;fontSize=16;sketch=1;hachureGap=4;jiggle=2;curveFitting=1;fontFamily=Architects Daughter;fontSource=https%3A%2F%2Ffonts.googleapis.com%2Fcss%3Ffamily%3DArchitects%2BDaughter;" vertex="1" parent="PA8RiOm6JGbZ_3bK-6OF-1">
          <mxGeometry y="280" width="80" height="40" as="geometry" />
        </mxCell>
        <mxCell id="PA8RiOm6JGbZ_3bK-6OF-18" value="&lt;b&gt;7&lt;/b&gt;" style="shape=partialRectangle;html=1;whiteSpace=wrap;connectable=0;strokeColor=#666666;overflow=hidden;fillColor=none;top=0;left=0;bottom=0;right=0;pointerEvents=1;fontSize=16;sketch=1;hachureGap=4;jiggle=2;curveFitting=1;fontFamily=Architects Daughter;fontSource=https%3A%2F%2Ffonts.googleapis.com%2Fcss%3Ffamily%3DArchitects%2BDaughter;fillStyle=auto;fontColor=#333333;" vertex="1" parent="PA8RiOm6JGbZ_3bK-6OF-17">
          <mxGeometry width="80" height="40" as="geometry">
            <mxRectangle width="80" height="40" as="alternateBounds" />
          </mxGeometry>
        </mxCell>
        <mxCell id="PA8RiOm6JGbZ_3bK-6OF-2" value="" style="shape=tableRow;horizontal=0;startSize=0;swimlaneHead=0;swimlaneBody=0;strokeColor=inherit;top=0;left=0;bottom=0;right=0;collapsible=0;dropTarget=0;fillColor=none;points=[[0,0.5],[1,0.5]];portConstraint=eastwest;fontSize=16;sketch=1;hachureGap=4;jiggle=2;curveFitting=1;fontFamily=Architects Daughter;fontSource=https%3A%2F%2Ffonts.googleapis.com%2Fcss%3Ffamily%3DArchitects%2BDaughter;" vertex="1" parent="PA8RiOm6JGbZ_3bK-6OF-1">
          <mxGeometry y="320" width="80" height="40" as="geometry" />
        </mxCell>
        <mxCell id="PA8RiOm6JGbZ_3bK-6OF-3" value="&lt;b&gt;8&lt;/b&gt;" style="shape=partialRectangle;html=1;whiteSpace=wrap;connectable=0;strokeColor=inherit;overflow=hidden;fillColor=none;top=0;left=0;bottom=0;right=0;pointerEvents=1;fontSize=16;sketch=1;hachureGap=4;jiggle=2;curveFitting=1;fontFamily=Architects Daughter;fontSource=https%3A%2F%2Ffonts.googleapis.com%2Fcss%3Ffamily%3DArchitects%2BDaughter;" vertex="1" parent="PA8RiOm6JGbZ_3bK-6OF-2">
          <mxGeometry width="80" height="40" as="geometry">
            <mxRectangle width="80" height="40" as="alternateBounds" />
          </mxGeometry>
        </mxCell>
        <mxCell id="PA8RiOm6JGbZ_3bK-6OF-10" value="" style="shape=tableRow;horizontal=0;startSize=0;swimlaneHead=0;swimlaneBody=0;strokeColor=inherit;top=0;left=0;bottom=0;right=0;collapsible=0;dropTarget=0;fillColor=none;points=[[0,0.5],[1,0.5]];portConstraint=eastwest;fontSize=16;sketch=1;hachureGap=4;jiggle=2;curveFitting=1;fontFamily=Architects Daughter;fontSource=https%3A%2F%2Ffonts.googleapis.com%2Fcss%3Ffamily%3DArchitects%2BDaughter;" vertex="1" parent="PA8RiOm6JGbZ_3bK-6OF-1">
          <mxGeometry y="360" width="80" height="40" as="geometry" />
        </mxCell>
        <mxCell id="PA8RiOm6JGbZ_3bK-6OF-11" value="&lt;b&gt;9&lt;/b&gt;" style="shape=partialRectangle;html=1;whiteSpace=wrap;connectable=0;strokeColor=inherit;overflow=hidden;fillColor=none;top=0;left=0;bottom=0;right=0;pointerEvents=1;fontSize=16;sketch=1;hachureGap=4;jiggle=2;curveFitting=1;fontFamily=Architects Daughter;fontSource=https%3A%2F%2Ffonts.googleapis.com%2Fcss%3Ffamily%3DArchitects%2BDaughter;" vertex="1" parent="PA8RiOm6JGbZ_3bK-6OF-10">
          <mxGeometry width="80" height="40" as="geometry">
            <mxRectangle width="80" height="40" as="alternateBounds" />
          </mxGeometry>
        </mxCell>
        <mxCell id="PA8RiOm6JGbZ_3bK-6OF-35" value="" style="shape=curlyBracket;whiteSpace=wrap;html=1;rounded=1;labelPosition=left;verticalLabelPosition=middle;align=right;verticalAlign=middle;sketch=1;hachureGap=4;jiggle=2;curveFitting=1;fontFamily=Architects Daughter;fontSource=https%3A%2F%2Ffonts.googleapis.com%2Fcss%3Ffamily%3DArchitects%2BDaughter;" vertex="1" parent="1">
          <mxGeometry x="320" y="400" width="20" height="80" as="geometry" />
        </mxCell>
        <mxCell id="PA8RiOm6JGbZ_3bK-6OF-36" value="&lt;b&gt;&lt;font style=&quot;font-size: 16px;&quot;&gt;checkCount&lt;/font&gt;&lt;/b&gt;" style="text;html=1;align=center;verticalAlign=middle;resizable=0;points=[];autosize=1;strokeColor=none;fillColor=none;fontFamily=Architects Daughter;fontSource=https%3A%2F%2Ffonts.googleapis.com%2Fcss%3Ffamily%3DArchitects%2BDaughter;" vertex="1" parent="1">
          <mxGeometry x="210" y="425" width="110" height="30" as="geometry" />
        </mxCell>
        <mxCell id="PA8RiOm6JGbZ_3bK-6OF-37" value="" style="shape=curlyBracket;whiteSpace=wrap;html=1;rounded=1;labelPosition=left;verticalLabelPosition=middle;align=right;verticalAlign=middle;sketch=1;hachureGap=4;jiggle=2;curveFitting=1;fontFamily=Architects Daughter;fontSource=https%3A%2F%2Ffonts.googleapis.com%2Fcss%3Ffamily%3DArchitects%2BDaughter;" vertex="1" parent="1">
          <mxGeometry x="320" y="480" width="20" height="200" as="geometry" />
        </mxCell>
        <mxCell id="PA8RiOm6JGbZ_3bK-6OF-39" value="&lt;span style=&quot;font-size: 16px;&quot;&gt;&lt;b&gt;minIdle&lt;/b&gt;&lt;/span&gt;" style="text;html=1;align=center;verticalAlign=middle;resizable=0;points=[];autosize=1;strokeColor=none;fillColor=none;fontFamily=Architects Daughter;fontSource=https%3A%2F%2Ffonts.googleapis.com%2Fcss%3Ffamily%3DArchitects%2BDaughter;" vertex="1" parent="1">
          <mxGeometry x="246" y="565" width="70" height="30" as="geometry" />
        </mxCell>
        <mxCell id="PA8RiOm6JGbZ_3bK-6OF-40" value="&lt;b&gt;&lt;font style=&quot;font-size: 16px;&quot;&gt;poolingCount&lt;/font&gt;&lt;/b&gt;" style="text;html=1;align=center;verticalAlign=middle;resizable=0;points=[];autosize=1;strokeColor=none;fillColor=none;fontFamily=Architects Daughter;fontSource=https%3A%2F%2Ffonts.googleapis.com%2Fcss%3Ffamily%3DArchitects%2BDaughter;" vertex="1" parent="1">
          <mxGeometry x="222.5" y="686" width="110" height="30" as="geometry" />
        </mxCell>
        <mxCell id="PA8RiOm6JGbZ_3bK-6OF-41" value="" style="endArrow=classic;html=1;rounded=0;sketch=1;hachureGap=4;jiggle=2;curveFitting=1;fontFamily=Architects Daughter;fontSource=https%3A%2F%2Ffonts.googleapis.com%2Fcss%3Ffamily%3DArchitects%2BDaughter;entryX=0;entryY=0.5;entryDx=0;entryDy=0;" edge="1" parent="1" target="PA8RiOm6JGbZ_3bK-6OF-17">
          <mxGeometry width="50" height="50" relative="1" as="geometry">
            <mxPoint x="327" y="700" as="sourcePoint" />
            <mxPoint x="356.5" y="704" as="targetPoint" />
          </mxGeometry>
        </mxCell>
        <mxCell id="PA8RiOm6JGbZ_3bK-6OF-42" value="&lt;b&gt;&lt;font style=&quot;font-size: 16px;&quot;&gt;maxActive&lt;/font&gt;&lt;/b&gt;" style="text;html=1;align=center;verticalAlign=middle;resizable=0;points=[];autosize=1;strokeColor=none;fillColor=none;fontFamily=Architects Daughter;fontSource=https%3A%2F%2Ffonts.googleapis.com%2Fcss%3Ffamily%3DArchitects%2BDaughter;" vertex="1" parent="1">
          <mxGeometry x="237" y="764" width="100" height="30" as="geometry" />
        </mxCell>
        <mxCell id="PA8RiOm6JGbZ_3bK-6OF-43" value="" style="endArrow=classic;html=1;rounded=0;sketch=1;hachureGap=4;jiggle=2;curveFitting=1;fontFamily=Architects Daughter;fontSource=https%3A%2F%2Ffonts.googleapis.com%2Fcss%3Ffamily%3DArchitects%2BDaughter;entryX=0;entryY=0.5;entryDx=0;entryDy=0;" edge="1" parent="1" target="PA8RiOm6JGbZ_3bK-6OF-10">
          <mxGeometry width="50" height="50" relative="1" as="geometry">
            <mxPoint x="329" y="780" as="sourcePoint" />
            <mxPoint x="360" y="784" as="targetPoint" />
          </mxGeometry>
        </mxCell>
        <mxCell id="PA8RiOm6JGbZ_3bK-6OF-44" value="&lt;b style=&quot;line-height: 150%;&quot;&gt;&lt;font style=&quot;font-size: 16px; line-height: 150%;&quot;&gt;minIdle=5,maxActive=10。连接池采用LRU栈式置换策略&lt;/font&gt;&lt;/b&gt;&lt;div&gt;&lt;span style=&quot;font-size: 16px;&quot;&gt;&lt;b&gt;poolingCount：池中可用的空闲连接；&lt;/b&gt;&lt;/span&gt;&lt;b style=&quot;background-color: initial; font-size: 16px;&quot;&gt;activeCount：已经借出去的连接数。两者之和为池中所有连接数&lt;/b&gt;&lt;div&gt;&lt;div style=&quot;line-height: 150%;&quot;&gt;&lt;span style=&quot;font-size: 16px; line-height: 150%;&quot;&gt;&lt;b&gt;此时池里有7个空闲连接，PoolingCount=7，checkCount=PoolingCount-minIdle=2&lt;/b&gt;&lt;/span&gt;&lt;/div&gt;&lt;div style=&quot;line-height: 150%;&quot;&gt;&lt;span style=&quot;font-size: 16px; line-height: 150%;&quot;&gt;&lt;b&gt;checkCount是空闲检测的重点对象，如果空闲超进&lt;/b&gt;&lt;/span&gt;&lt;span style=&quot;background-color: initial; font-size: 16px; line-height: 150%;&quot;&gt;&lt;b&gt;minEvictableIdleTimeMillis会被销毁&lt;/b&gt;&lt;/span&gt;&lt;/div&gt;&lt;div style=&quot;line-height: 150%;&quot;&gt;&lt;span style=&quot;background-color: initial; font-size: 16px; line-height: 150%;&quot;&gt;&lt;b&gt;empty：获取连接时如果可用连接为空会触发signal，然后等待notEmpty；连接池达到maxActive会等待&lt;/b&gt;&lt;/span&gt;&lt;/div&gt;&lt;div style=&quot;line-height: 150%;&quot;&gt;&lt;span style=&quot;background-color: initial; font-size: 16px; line-height: 150%;&quot;&gt;&lt;b&gt;notEmpty：归还连接时会触发signal，&lt;/b&gt;&lt;/span&gt;&lt;/div&gt;&lt;/div&gt;&lt;/div&gt;" style="text;html=1;align=center;verticalAlign=middle;resizable=0;points=[];autosize=1;strokeColor=none;fillColor=none;fontFamily=Architects Daughter;fontSource=https%3A%2F%2Ffonts.googleapis.com%2Fcss%3Ffamily%3DArchitects%2BDaughter;" vertex="1" parent="1">
          <mxGeometry x="10" y="830" width="750" height="150" as="geometry" />
        </mxCell>
      </root>
    </mxGraphModel>
  </diagram>
</mxfile>
